<svg width="32" height="32" viewBox="0 0 32 32" fill="none" xmlns="http://www.w3.org/2000/svg">
<path d="M27.5574 20.3936V27.7035H4.44264V20.3936H0V29.8523C0 31.0382 0.993138 32 2.22463 32H29.7754C31.0058 32 32 31.0393 32 29.8523V20.3936H27.5574Z" fill="black"/>
<path d="M15.5934 19.6688L9.23287 12.234C9.23287 12.234 8.26512 11.3502 9.31453 11.3502C10.3639 11.3502 12.8987 11.3502 12.8987 11.3502C12.8987 11.3502 12.8987 10.7556 12.8987 9.83869C12.8987 7.2245 12.8987 2.46688 12.8987 0.52732C12.8987 0.52732 12.7563 0 13.5773 0C14.4049 0 18.0299 0 18.6224 0C19.2139 0 19.2007 0.444059 19.2007 0.444059C19.2007 2.32491 19.2007 7.24692 19.2007 9.77571C19.2007 10.5955 19.2007 11.1271 19.2007 11.1271C19.2007 11.1271 21.2333 11.1271 22.5089 11.1271C23.7823 11.1271 22.8234 12.0526 22.8234 12.0526C22.8234 12.0526 17.4119 19.0017 16.6571 19.7307C16.1142 20.2591 15.5934 19.6688 15.5934 19.6688Z" fill="black"/>
</svg>
