<?xml version="1.0" encoding="utf-8"?>
<!-- Generator: Adobe Illustrator 25.0.0, SVG Export Plug-In . SVG Version: 6.00 Build 0)  -->
<svg version="1.1" id="Layer_1" xmlns="http://www.w3.org/2000/svg" xmlns:xlink="http://www.w3.org/1999/xlink" x="0px" y="0px"
	 viewBox="0 0 72 72" style="enable-background:new 0 0 72 72;" xml:space="preserve">
<path d="M0,20.1c0-1.4,0.5-2.7,1.5-3.6c1.9-2,5-2.1,7-0.2c0.1,0.1,0.1,0.1,0.2,0.2L36,43.8l27.3-27.3c2-2,5.2-2,7.2,0
	c2,2,2,5.2,0,7.2l0,0L39.6,54.6c-1.9,2-5,2.1-7,0.2c-0.1-0.1-0.1-0.1-0.2-0.2L1.5,23.7C0.5,22.8,0,21.5,0,20.1z"/>
</svg>
