<svg width="26" height="32" viewBox="0 0 26 32" fill="none" xmlns="http://www.w3.org/2000/svg">
<path d="M24.8068 6.04801L19.0926 0.333683C18.9862 0.227009 18.8595 0.142701 18.72 0.0857142C18.5821 0.0293973 18.4347 0.000267857 18.2857 0H3.42857C1.53502 0 0 1.53502 0 3.42857V28.5714C0 30.465 1.53502 32 3.42857 32H21.7143C23.6078 32 25.1429 30.465 25.1429 28.5714V6.85714C25.1413 6.55379 25.0206 6.26323 24.8068 6.04801ZM19.4285 3.90174L21.2411 5.71433H19.4285V3.90174ZM22.8571 28.5714C22.8571 29.2026 22.3454 29.7143 21.7142 29.7143H3.42857C2.79736 29.7143 2.28569 29.2026 2.28569 28.5714V3.42857C2.28569 2.79736 2.79736 2.28569 3.42857 2.28569H17.1428V6.85714C17.1428 7.48834 17.6545 8.00002 18.2857 8.00002H22.8572V28.5714H22.8571Z" fill="black"/>
</svg>
