<?xml version="1.0" encoding="utf-8"?>
<!-- Generator: Adobe Illustrator 25.0.0, SVG Export Plug-In . SVG Version: 6.00 Build 0)  -->
<svg version="1.1" id="Layer_1" xmlns="http://www.w3.org/2000/svg" xmlns:xlink="http://www.w3.org/1999/xlink" x="0px" y="0px"
	 viewBox="0 0 72 72" style="enable-background:new 0 0 72 72;" xml:space="preserve">
<path d="M51,0c1.4,0,2.7,0.5,3.6,1.5c2,1.9,2.1,5,0.2,7c-0.1,0.1-0.1,0.1-0.2,0.2L27.3,36l27.3,27.3c2,2,2,5.2,0,7.2
	c-2,2-5.2,2-7.2,0l0,0L16.5,39.6c-2-1.9-2.1-5-0.2-7c0.1-0.1,0.1-0.1,0.2-0.2L47.4,1.5C48.3,0.5,49.6,0,51,0z"/>
</svg>
