<?xml version="1.0" encoding="utf-8"?>
<!-- Generator: Adobe Illustrator 19.0.0, SVG Export Plug-In . SVG Version: 6.00 Build 0)  -->
<svg version="1.1" id="Layer_1" xmlns="http://www.w3.org/2000/svg" xmlns:xlink="http://www.w3.org/1999/xlink" x="0px" y="0px"
	 viewBox="0 0 32 32" style="enable-background:new 0 0 32 32;" xml:space="preserve">
<path id="XMLID_877_" d="M26,11H6c-0.6,0-1-0.4-1-1s0.4-1,1-1h20c0.6,0,1,0.4,1,1S26.6,11,26,11z M27,16c0-0.6-0.4-1-1-1H6
	c-0.6,0-1,0.4-1,1s0.4,1,1,1h20C26.6,17,27,16.6,27,16z M27,22c0-0.6-0.4-1-1-1H6c-0.6,0-1,0.4-1,1s0.4,1,1,1h20
	C26.6,23,27,22.6,27,22z"/>
</svg>
