<svg width="33" height="32" viewBox="0 0 33 32" fill="none" xmlns="http://www.w3.org/2000/svg">
<path d="M14.6349 10.5434L21.2808 15.3744C21.4883 15.5257 21.6141 15.7629 21.6131 16.0208C21.6131 16.2741 21.4904 16.5127 21.2808 16.6672L14.6349 21.4935C14.4945 21.597 14.3287 21.6495 14.1643 21.6495C14.0385 21.6495 13.9142 21.6204 13.8003 21.5632C13.6521 21.4878 13.5346 21.3703 13.4587 21.2298C13.3968 21.1149 13.3625 20.9844 13.3625 20.8482V11.1898C13.3625 10.8908 13.5309 10.6136 13.8003 10.4774C14.0676 10.3401 14.3911 10.3666 14.6349 10.5434Z" fill="black"/>
<path fill-rule="evenodd" clip-rule="evenodd" d="M0 16.0026C0 7.16329 7.16329 0 16.0026 0C24.8404 0 32.0052 7.16329 32.0042 16.0026C32.0042 24.8378 24.8404 32 16.0026 32C7.16329 32 0 24.8393 0 16.0026ZM2.67291 16.0026C2.67291 23.3651 8.64119 29.3302 16.0026 29.3302C23.363 29.3302 29.3313 23.3651 29.3302 16.0026C29.3302 8.64275 23.363 2.67083 16.0026 2.67083C8.64119 2.67083 2.67291 8.64379 2.67291 16.0026Z" fill="black"/>
</svg>
