<?xml version="1.0" encoding="utf-8"?>
<!-- Generator: Adobe Illustrator 25.0.0, SVG Export Plug-In . SVG Version: 6.00 Build 0)  -->
<svg version="1.1" id="Layer_1" xmlns="http://www.w3.org/2000/svg" xmlns:xlink="http://www.w3.org/1999/xlink" x="0px" y="0px"
	 viewBox="0 0 72 72" style="enable-background:new 0 0 72 72;" xml:space="preserve">
<path d="M20.1,72c-1.4,0-2.7-0.5-3.6-1.5c-2-1.9-2.1-5-0.2-7c0.1-0.1,0.1-0.1,0.2-0.2L43.8,36L16.5,8.7c-2-2-2-5.2,0-7.2
	c2-2,5.2-2,7.2,0l0,0l30.9,30.9c2,1.9,2.1,5,0.2,7c-0.1,0.1-0.1,0.1-0.2,0.2L23.7,70.5C22.8,71.5,21.5,72,20.1,72z"/>
</svg>
